<svg width="96" height="96" viewBox="0 0 96 96" fill="none" xmlns="http://www.w3.org/2000/svg">
  <path d="M48 7C60 16 72 17 84 17V45C84 66 69 82 48 90C27 82 12 66 12 45V17C24 17 36 16 48 7Z" fill="#0B7A45"/>
  <path d="M48 14C58 21 68 22 78 22V45C78 61 67 74 48 82C29 74 18 61 18 45V22C28 22 38 21 48 14Z" fill="white"/>
  <path d="M48 20C56 26 64 28 72 28V45C72 57 64 67 48 75C32 67 24 57 24 45V28C32 28 40 26 48 20Z" fill="#0B7A45"/>
  <path d="M28 33L43 48L28 63" stroke="white" stroke-width="6" stroke-linecap="round" stroke-linejoin="round"/>
  <path d="M68 33L53 48L68 63" stroke="white" stroke-width="6" stroke-linecap="round" stroke-linejoin="round"/>
  <path d="M35 70L48 48L61 70" stroke="white" stroke-width="6" stroke-linecap="round" stroke-linejoin="round"/>
  <path d="M32 12V5M42 10V3M54 10V3M64 12V5" stroke="#0B7A45" stroke-width="5" stroke-linecap="round"/>
</svg>
